<?xml version="1.0" encoding="UTF-8"?><svg version="1.1" width="100px" height="100px" viewBox="0 0 100.0 100.0" xmlns="http://www.w3.org/2000/svg" xmlns:xlink="http://www.w3.org/1999/xlink"><defs><clipPath id="i0"><path d="M100,0 L100,100 L0,100 L0,0 L100,0 Z"></path></clipPath><clipPath id="i1"><path d="M18.9,0 L18.9,5.4 L13.725,5.4 C12.375,5.4 11.7,6.15 11.7,7.65 L11.7,31.65 C11.7,33.35 11.1625,34.75 10.0875,35.85 C9.0125,36.95 7.6,37.5 5.85,37.5 L4.95,37.5 L4.95,38.4 L5.85,38.4 C7.6,38.4 9.0125,38.95 10.0875,40.05 C11.1625,41.15 11.7,42.55 11.7,44.25 L11.7,68.25 C11.7,69.75 12.375,70.5 13.725,70.5 L18.9,70.5 L18.9,75.9 L11.625,75.9 C9.925,75.9 8.5375,75.35 7.4625,74.25 C6.3875,73.15 5.85,71.75 5.85,70.05 L5.85,44.175 C5.85,42.725 5.175,42 3.825,42 L0,42 L0,33.9 L3.825,33.9 C5.175,33.9 5.85,33.175 5.85,31.725 L5.85,5.85 C5.85,4.15 6.3875,2.75 7.4625,1.65 C8.5375,0.55 9.925,0 11.625,0 L18.9,0 Z M71.375,0 C73.075,0 74.4625,0.55 75.5375,1.65 C76.6125,2.75 77.15,4.15 77.15,5.85 L77.15,31.725 C77.15,33.175 77.825,33.9 79.175,33.9 L83,33.9 L83,42 L79.175,42 C77.825,42 77.15,42.725 77.15,44.175 L77.15,70.05 C77.15,71.75 76.6125,73.15 75.5375,74.25 C74.4625,75.35 73.075,75.9 71.375,75.9 L64.1,75.9 L64.1,70.5 L69.275,70.5 C70.625,70.5 71.3,69.75 71.3,68.25 L71.3,44.25 C71.3,42.55 71.8375,41.15 72.9125,40.05 C73.9875,38.95 75.4,38.4 77.15,38.4 L78.05,38.4 L78.05,37.5 L77.15,37.5 C75.4,37.5 73.9875,36.95 72.9125,35.85 C71.8375,34.75 71.3,33.35 71.3,31.65 L71.3,7.65 C71.3,6.15 70.625,5.4 69.275,5.4 L64.1,5.4 L64.1,0 Z M49.3225,6.3 C52.6658333,6.3 55.3433333,7.1075 57.355,8.7225 C59.3666667,10.3375 60.3725,12.3916667 60.3725,14.885 C60.3725,16.4716667 59.9758333,17.6758333 59.1825,18.4975 C58.3891667,19.3191667 57.3125,19.73 55.9525,19.73 C54.6491667,19.73 53.6008333,19.3616667 52.8075,18.625 C52.0141667,17.8883333 51.6175,16.84 51.6175,15.48 C51.6175,14.0066667 52.0708333,12.5333333 52.9775,11.06 C52.0141667,10.04 50.7108333,9.53 49.0675,9.53 C47.7641667,9.53 46.6308333,9.81333333 45.6675,10.38 C44.4208333,11.1166667 43.5283333,12.165 42.99,13.525 C42.4516667,14.885 42.1258333,16.4008333 42.0125,18.0725 C41.8991667,19.7441667 41.8425,21.4866667 41.8425,23.3 L41.8425,27.55 L52.7225,27.55 L52.7225,31.8 L41.8425,31.8 L41.8425,68.35 L51.0225,69.965 L51.0225,73.45 L27.0525,73.45 L27.0525,69.965 L33.5975,68.35 L33.5975,31.8 L25.3525,31.8 L25.3525,28.74 L33.5975,27.55 L33.598905,26.3460207 C33.6494835,20.0009463 35.0656818,15.0897727 37.8475,11.6125 C40.6808333,8.07083333 44.5058333,6.3 49.3225,6.3 Z"></path></clipPath><linearGradient id="i2" x1="41.5px" y1="0px" x2="41.5px" y2="75.9px" gradientUnits="userSpaceOnUse"><stop stop-color="#B7C5E0" offset="0%"></stop><stop stop-color="#706E76" offset="69.6896853%"></stop><stop stop-color="#31221A" offset="100%"></stop></linearGradient></defs><g clip-path="url(#i0)"><g transform="translate(8.5 12.049999999999997)"><g clip-path="url(#i1)"><polygon points="0,0 83,0 83,75.9 0,75.9 0,0" stroke="none" fill="url(#i2)"></polygon></g></g></g></svg>